<?xml version="1.0" encoding="utf-8"?>
<!-- Generator: Adobe Illustrator 24.3.0, SVG Export Plug-In . SVG Version: 6.00 Build 0)  -->
<svg version="1.1" id="Layer_1" xmlns="http://www.w3.org/2000/svg" xmlns:xlink="http://www.w3.org/1999/xlink" x="0px" y="0px"
	 viewBox="0 0 64 64" style="enable-background:new 0 0 64 64;" xml:space="preserve">
<style type="text/css">
	.st0{opacity:0.7;fill-rule:evenodd;clip-rule:evenodd;fill:#FFFFFF;}
</style>
<path class="st0" d="M32,2C15.4,2,2,15.4,2,32c0,13.3,8.6,24.5,20.5,28.5c1.5,0.3,2-0.7,2-1.4c0-0.7,0-2.6,0-5.1
	c-8.3,1.8-10.1-4-10.1-4c-1.4-3.5-3.3-4.4-3.3-4.4c-2.7-1.9,0.2-1.8,0.2-1.8c3,0.2,4.6,3.1,4.6,3.1c2.7,4.6,7,3.3,8.7,2.5
	c0.3-1.9,1-3.3,1.9-4c-6.7-0.8-13.7-3.3-13.7-14.8c0-3.3,1.2-6,3.1-8c-0.3-0.8-1.3-3.8,0.3-7.9c0,0,2.5-0.8,8.2,3.1
	c2.4-0.7,5-1,7.5-1c2.5,0,5.1,0.3,7.5,1c5.7-3.9,8.2-3.1,8.2-3.1c1.6,4.1,0.6,7.2,0.3,7.9c1.9,2.1,3.1,4.8,3.1,8
	c0,11.5-7,14.1-13.7,14.8c1.1,0.9,2,2.8,2,5.6c0,4,0,7.2,0,8.2c0,0.8,0.5,1.7,2.1,1.4C53.4,56.5,62,45.3,62,32C62,15.4,48.6,2,32,2z
	"/>
</svg>
