<?xml version="1.0" encoding="utf-8"?>
<!-- Generator: Adobe Illustrator 24.2.3, SVG Export Plug-In . SVG Version: 6.00 Build 0)  -->
<svg version="1.1" id="Layer_1" xmlns="http://www.w3.org/2000/svg" xmlns:xlink="http://www.w3.org/1999/xlink" x="0px" y="0px"
	 viewBox="0 0 140.2 44.8" style="enable-background:new 0 0 140.2 44.8;" xml:space="preserve">
<style type="text/css">
	.st0{fill:#FFFFFF;}
	.st1{fill:none;}
</style>
<g>
	<g>
		<path class="st0" d="M50.6,31.2v-3.1L60,16.6h-8.9v-2.3H63v2.8l-9.5,11.8H63v2.3H50.6z"/>
		<path class="st0" d="M66.9,11.2V7.5h2.8v3.7H66.9z M66.9,31.2V14.4h2.7v16.8L66.9,31.2z"/>
		<path class="st0" d="M93.3,31.2V20c0-0.6,0-1.1,0-1.5s-0.1-0.8-0.3-1.2c-0.2-0.3-0.4-0.6-0.8-0.8c-0.3-0.2-0.8-0.3-1.4-0.3
			s-1.3,0.1-2,0.3s-1.5,0.6-2.2,1c0.1,0.4,0.1,0.8,0.1,1.2c0,0.4,0,0.8,0,1.1V31h-2.7V20c0-0.6,0-1.1,0-1.5s-0.1-0.8-0.3-1.2
			c-0.2-0.3-0.3-0.6-0.7-0.8s-0.8-0.3-1.4-0.3c-0.3,0-0.8,0-1.1,0.1c-0.3,0.1-0.8,0.2-1.2,0.3c-0.4,0.2-0.8,0.3-1.1,0.5
			s-0.7,0.3-1,0.5v13.4h-2.7V14.4h2.7v1.3c0.7-0.5,1.4-0.9,2.3-1.3c0.8-0.3,1.8-0.5,2.7-0.5c0.9,0,1.8,0.2,2.4,0.5s1,0.8,1.4,1.3
			c1-0.7,1.9-1.1,2.7-1.4c0.8-0.3,1.7-0.4,2.5-0.4c0.8,0,1.5,0.1,2,0.3c0.5,0.2,1,0.4,1.4,0.8s0.7,0.7,0.8,1.1
			c0.2,0.4,0.3,0.8,0.4,1.3c0.1,0.4,0.2,0.9,0.2,1.4c0,0.4,0,0.9,0,1.4v11.1L93.3,31.2L93.3,31.2z"/>
		<path class="st0" d="M110.3,31.2v-1.1c-0.3,0.2-0.6,0.3-0.9,0.5c-0.3,0.2-0.8,0.3-1.2,0.5c-0.4,0.2-0.9,0.3-1.4,0.3
			s-1.1,0.2-1.8,0.2c-0.8,0-1.5-0.1-2.1-0.3c-0.6-0.2-1.2-0.5-1.6-0.8c-0.4-0.3-0.8-0.8-1-1.4s-0.3-1.4-0.3-2.1v-0.6
			c0-1.1,0.2-2,0.5-2.7c0.3-0.7,0.8-1.2,1.5-1.6c0.7-0.4,1.5-0.6,2.5-0.8c0.9-0.1,2-0.2,3.2-0.2h2.5v-1.2c0-0.8-0.1-1.4-0.2-1.8
			c-0.1-0.4-0.3-0.8-0.6-1.1s-0.7-0.4-1.2-0.5c-0.5-0.1-1.2-0.2-2-0.2c-0.5,0-0.9,0-1.4,0s-0.8,0.1-1.3,0.1c-0.4,0-0.8,0.1-1.3,0.1
			s-0.8,0.1-1.4,0.2v-2c0.1,0,0.3-0.1,0.7-0.2s0.8-0.2,1.3-0.3c0.5-0.1,1-0.2,1.6-0.2s1.2-0.1,1.9-0.1c1.4,0,2.5,0.1,3.4,0.3
			c0.8,0.3,1.5,0.6,2,1.1c0.4,0.5,0.8,1.1,0.9,1.9c0.2,0.8,0.3,1.6,0.3,2.5v11.4L110.3,31.2L110.3,31.2z M110.1,23.1h-2.5
			c-0.8,0-1.6,0-2.3,0.1c-0.6,0.1-1.2,0.3-1.5,0.4s-0.7,0.5-0.8,0.9c-0.2,0.4-0.3,0.9-0.3,1.6V27c0,0.5,0.1,0.8,0.2,1.2
			c0.2,0.3,0.3,0.6,0.6,0.8c0.3,0.2,0.5,0.3,0.8,0.4c0.3,0.1,0.7,0.1,1.1,0.1c0.5,0,1-0.1,1.4-0.2s0.9-0.2,1.4-0.3
			c0.4-0.2,0.8-0.3,1.1-0.4c0.3-0.2,0.6-0.3,0.8-0.4V23.1z"/>
		<path class="st0" d="M127.6,31.3c-0.2,0-0.3,0.1-0.6,0.1s-0.5,0.1-0.8,0.1c-0.3,0-0.7,0.1-1,0.1c-0.3,0-0.7,0-1,0
			c-1.2,0-2.2-0.2-3.1-0.4c-0.9-0.3-1.7-0.7-2.4-1.3c-0.7-0.6-1.1-1.4-1.4-2.4c-0.3-1-0.5-2.2-0.5-3.7v-2.1c0-1.3,0.2-2.5,0.4-3.4
			c0.3-0.9,0.8-1.8,1.4-2.5s1.4-1.1,2.4-1.4c1-0.3,2.1-0.5,3.5-0.5c0.5,0,1,0,1.5,0s1.1,0.1,1.6,0.1s1,0.1,1.5,0.2
			c0.5,0.1,0.9,0.1,1.4,0.2V32c0,0.8-0.1,1.7-0.3,2.4c-0.2,0.7-0.5,1.4-0.9,1.9c-0.4,0.5-1.1,0.9-2,1.2s-2,0.4-3.3,0.4
			c-0.7,0-1.3,0-2-0.1s-1.3-0.1-1.9-0.2s-1.1-0.2-1.5-0.2c-0.4,0-0.7-0.1-0.8-0.2v-2c0.9,0.1,2,0.1,3,0.2c1,0.1,2.1,0.1,3.2,0.1
			c0.8,0,1.5-0.1,2-0.3s0.8-0.3,1.1-0.7c0.3-0.3,0.4-0.7,0.5-1.1c0.1-0.4,0.1-0.9,0.1-1.5L127.6,31.3L127.6,31.3z M127.6,16.5
			c-0.1,0-0.3,0-0.4-0.1s-0.4-0.1-0.8-0.1c-0.3,0-0.6-0.1-1-0.1s-0.8,0-1.1,0c-0.9,0-1.7,0.1-2.4,0.3c-0.7,0.3-1.1,0.6-1.4,1
			c-0.3,0.4-0.6,1-0.8,1.7s-0.3,1.4-0.3,2.4v2.1c0,1,0.1,2,0.3,2.6s0.4,1.3,0.8,1.7c0.4,0.4,0.8,0.7,1.4,0.8s1.4,0.3,2.2,0.3
			c0.3,0,0.7,0,1,0s0.7-0.1,1-0.1c0.3,0,0.6-0.1,0.8-0.1s0.4-0.1,0.5-0.1L127.6,16.5L127.6,16.5z"/>
		<path class="st0" d="M135.2,11.2V7.5h2.8v3.7H135.2z M135.2,31.2V14.4h2.7v16.8L135.2,31.2z"/>
	</g>
	<path class="st0" d="M36.3,26.8c-0.6,5.6-4.5,9.8-9.5,10.3c0,0-2.5,0.4-5.5,0.4s-5.5-0.4-5.5-0.4c-5-0.5-8.9-4.7-9.5-10.3
		c-0.5-4.6,0-8.8,0-8.8c0.6-5.6,4.5-9.8,9.5-10.3c0,0,2.5-0.4,5.5-0.4s5.5,0.4,5.5,0.4c5,0.5,8.9,4.7,9.5,10.3
		C36.3,18,36.8,22.2,36.3,26.8z M40.2,18C39.3,9.8,34.2,4.3,26.8,3.5c0,0-3.3-0.4-5.5-0.4s-5.5,0.4-5.5,0.4C8.3,4.4,3.2,9.8,2.3,18
		c0,0-0.3,4.1,0,8.8c0.8,8.2,5.9,13.7,13.4,14.4c0,0,3.3,0.4,5.5,0.4s5.5-0.4,5.5-0.4c7.5-0.8,12.6-6.3,13.4-14.4
		C40.6,22,40.2,18,40.2,18z"/>
	<g>
		<polygon class="st0" points="12.5,20.2 10.4,15.3 17.3,17 21.3,13.4 25.2,17 32,15.3 29.9,20.2 		"/>
		<path class="st0" d="M25.8,25.5h-4.9L16,29.8h4.8L25.8,25.5L25.8,25.5z"/>
		<path class="st0" d="M29.9,22H12.5v4.2H25L29.9,22L29.9,22z"/>
		<path class="st0" d="M29.8,27.2H19l-5,4.2h15.9L29.8,27.2L29.8,27.2z"/>
	</g>
</g>
<rect x="8.2" class="st1" width="44.7" height="43.5"/>
</svg>
