<?xml version="1.0" encoding="utf-8"?>
<!-- Generator: Adobe Illustrator 24.2.3, SVG Export Plug-In . SVG Version: 6.00 Build 0)  -->
<svg version="1.1" id="Layer_1" xmlns="http://www.w3.org/2000/svg" xmlns:xlink="http://www.w3.org/1999/xlink" x="0px" y="0px"
	 viewBox="0 0 42.8 44.8" style="enable-background:new 0 0 42.8 44.8;" xml:space="preserve">
<style type="text/css">
	.st0{fill:#FFFFFF;}
</style>
<path class="st0" d="M36.3,26.8c-0.6,5.6-4.5,9.8-9.5,10.3c0,0-2.5,0.4-5.5,0.4s-5.5-0.4-5.5-0.4c-5-0.5-8.9-4.7-9.5-10.3
	c-0.5-4.6,0-8.8,0-8.8c0.6-5.6,4.5-9.8,9.5-10.3c0,0,2.5-0.4,5.5-0.4s5.5,0.4,5.5,0.4c5,0.5,8.9,4.7,9.5,10.3
	C36.3,18,36.8,22.2,36.3,26.8z M40.2,18C39.3,9.8,34.2,4.3,26.7,3.5c0,0-3.3-0.4-5.5-0.4s-5.5,0.4-5.5,0.4C8.2,4.4,3.1,9.8,2.3,18
	c0,0-0.3,4.1,0,8.8C3.1,35,8.2,40.5,15.7,41.3c0,0,3.3,0.4,5.5,0.4s5.5-0.4,5.5-0.4c7.5-0.8,12.6-6.3,13.4-14.4
	C40.6,22,40.2,18,40.2,18z"/>
<g>
	<polygon class="st0" points="12.5,20.1 10.4,15.3 17.4,17 21.3,13.4 25.2,17 32.1,15.3 29.9,20.1 	"/>
	<path class="st0" d="M25.9,25.5h-4.9L16,29.7h4.8L25.9,25.5L25.9,25.5z"/>
	<path class="st0" d="M29.9,22H12.5v4.2H25L29.9,22L29.9,22z"/>
	<path class="st0" d="M29.9,27.2H19.1l-5,4.2h15.9L29.9,27.2L29.9,27.2z"/>
</g>
</svg>
