<?xml version="1.0" encoding="utf-8"?>
<!-- Generator: Adobe Illustrator 24.2.3, SVG Export Plug-In . SVG Version: 6.00 Build 0)  -->
<svg version="1.1" id="Layer_1" xmlns="http://www.w3.org/2000/svg" xmlns:xlink="http://www.w3.org/1999/xlink" x="0px" y="0px"
	 viewBox="0 0 61 60" style="enable-background:new 0 0 61 60;" xml:space="preserve">
<style type="text/css">
	.st0{clip-path:url(#SVGID_2_);}
	.st1{fill:#FFFFFF;}
</style>
<g>
	<defs>
		<rect id="SVGID_1_" x="8.2" y="8.2" width="44.7" height="43.5"/>
	</defs>
	<clipPath id="SVGID_2_">
		<use xlink:href="#SVGID_1_"  style="overflow:visible;"/>
	</clipPath>
	<g class="st0">
		<g>
			<path class="st1" d="M56.5,39.1v-2.7l7.9-9.7h-7.5v-1.9h10.1v2.4l-8,10h8v1.9H56.5z"/>
			<path class="st1" d="M70.2,22.3v-3.2h2.4v3.2H70.2z M70.2,39.1V24.9h2.3v14.2L70.2,39.1z"/>
			<path class="st1" d="M92.5,39.1v-9.5c0-0.5,0-0.9,0-1.3c0-0.4-0.1-0.7-0.2-1c-0.1-0.3-0.4-0.5-0.6-0.6s-0.7-0.2-1.2-0.2
				s-1.1,0.1-1.7,0.3c-0.6,0.2-1.3,0.5-1.9,0.9c0.1,0.4,0.1,0.6,0.1,1c0,0.4,0,0.6,0,0.9V39h-2.3v-9.3c0-0.5,0-0.9,0-1.3
				c0-0.4-0.1-0.7-0.2-1c-0.1-0.3-0.3-0.5-0.6-0.6s-0.6-0.2-1.1-0.2c-0.3,0-0.6,0-0.9,0.1c-0.3,0.1-0.6,0.1-1,0.3
				c-0.4,0.1-0.6,0.2-0.9,0.4s-0.6,0.3-0.9,0.4v11.3h-2.3V24.9H79V26c0.6-0.4,1.2-0.8,1.9-1.1c0.7-0.3,1.5-0.4,2.3-0.4
				c0.8,0,1.5,0.1,2,0.4c0.5,0.3,0.9,0.6,1.1,1.1c0.9-0.6,1.6-0.9,2.3-1.1c0.7-0.2,1.4-0.4,2.1-0.4c0.7,0,1.3,0.1,1.7,0.2
				c0.4,0.1,0.9,0.4,1.1,0.6c0.3,0.3,0.6,0.6,0.7,0.9c0.1,0.4,0.3,0.7,0.4,1.1c0.1,0.4,0.1,0.8,0.1,1.1c0,0.4,0,0.8,0,1.1v9.4
				L92.5,39.1L92.5,39.1z"/>
			<path class="st1" d="M106.9,39.1v-0.9c-0.2,0.1-0.5,0.3-0.8,0.4s-0.6,0.3-1,0.4s-0.8,0.2-1.2,0.3s-0.9,0.1-1.5,0.1
				c-0.6,0-1.3-0.1-1.8-0.2c-0.5-0.1-1-0.4-1.4-0.7c-0.4-0.3-0.6-0.7-0.9-1.2c-0.2-0.5-0.3-1.1-0.3-1.8V35c0-0.9,0.1-1.7,0.4-2.3
				c0.3-0.6,0.7-1,1.3-1.4c0.6-0.4,1.3-0.5,2.1-0.6c0.8-0.1,1.7-0.1,2.7-0.1h2.1v-1c0-0.6-0.1-1.1-0.1-1.5c-0.1-0.4-0.2-0.7-0.5-0.9
				c-0.3-0.2-0.6-0.4-1-0.4c-0.4-0.1-1-0.1-1.7-0.1c-0.4,0-0.8,0-1.1,0s-0.7,0.1-1.1,0.1s-0.7,0.1-1.1,0.1s-0.7,0.1-1.1,0.1v-1.7
				c0.1,0,0.3-0.1,0.6-0.1s0.6-0.1,1.1-0.2s0.9-0.1,1.4-0.1s1-0.1,1.6-0.1c1.1,0,2.2,0.1,2.9,0.3s1.3,0.5,1.7,0.9s0.6,0.9,0.8,1.6
				c0.1,0.6,0.2,1.4,0.2,2.2v9.6L106.9,39.1L106.9,39.1z M106.7,32.3h-2.1c-0.7,0-1.4,0-1.9,0.1c-0.5,0.1-1,0.2-1.3,0.4
				s-0.6,0.4-0.7,0.8c-0.1,0.4-0.2,0.8-0.2,1.4v0.7c0,0.4,0.1,0.7,0.1,1c0.1,0.3,0.3,0.5,0.5,0.6c0.2,0.1,0.4,0.3,0.7,0.4
				c0.3,0.1,0.6,0.1,0.9,0.1c0.4,0,0.9-0.1,1.2-0.1c0.4-0.1,0.8-0.1,1.1-0.3c0.4-0.1,0.6-0.2,0.9-0.4c0.3-0.1,0.5-0.2,0.6-0.4V32.3z
				"/>
			<path class="st1" d="M121.5,39.2c-0.1,0-0.3,0.1-0.5,0.1c-0.2,0-0.4,0.1-0.7,0.1c-0.3,0-0.6,0.1-0.9,0.1c-0.3,0-0.6,0-0.9,0
				c-1,0-1.9-0.1-2.7-0.4c-0.8-0.2-1.4-0.6-2-1.1c-0.6-0.5-0.9-1.1-1.2-2c-0.3-0.9-0.4-1.9-0.4-3.2V31c0-1.1,0.1-2.1,0.4-2.9
				c0.2-0.8,0.6-1.5,1.1-2.1c0.5-0.6,1.1-0.9,2-1.2s1.8-0.4,2.9-0.4c0.4,0,0.9,0,1.3,0c0.4,0,0.9,0.1,1.4,0.1s0.9,0.1,1.3,0.1
				s0.8,0.1,1.1,0.1v15c0,0.7-0.1,1.4-0.2,2c-0.1,0.6-0.4,1.1-0.8,1.6c-0.4,0.4-0.9,0.8-1.7,1s-1.7,0.4-2.8,0.4
				c-0.6,0-1.1,0-1.7-0.1c-0.6-0.1-1.1-0.1-1.6-0.1c-0.5-0.1-0.9-0.1-1.3-0.1s-0.6-0.1-0.7-0.1v-1.7c0.8,0.1,1.7,0.1,2.5,0.1
				s1.8,0.1,2.7,0.1c0.7,0,1.3-0.1,1.7-0.2s0.7-0.3,0.9-0.6c0.2-0.3,0.4-0.6,0.4-0.9c0.1-0.4,0.1-0.8,0.1-1.3L121.5,39.2L121.5,39.2
				z M121.5,26.7c-0.1,0-0.2,0-0.4-0.1s-0.4-0.1-0.6-0.1c-0.3,0-0.5-0.1-0.9-0.1s-0.6,0-0.9,0c-0.8,0-1.4,0.1-2,0.3
				c-0.6,0.2-0.9,0.5-1.2,0.9c-0.3,0.4-0.5,0.9-0.6,1.4c-0.1,0.6-0.2,1.2-0.2,2v1.8c0,0.9,0.1,1.7,0.2,2.2c0.1,0.6,0.4,1.1,0.7,1.4
				c0.4,0.4,0.7,0.6,1.2,0.7s1.1,0.2,1.9,0.2c0.3,0,0.6,0,0.9,0c0.3,0,0.6-0.1,0.9-0.1c0.3,0,0.5-0.1,0.7-0.1s0.4-0.1,0.4-0.1
				L121.5,26.7L121.5,26.7z"/>
			<path class="st1" d="M128,22.3v-3.2h2.4v3.2H128z M128,39.1V24.9h2.3v14.2L128,39.1z"/>
		</g>
		<path class="st1" d="M44.3,35.4c-0.5,4.7-3.8,8.3-8,8.7c0,0-2.2,0.4-4.7,0.4S27,44.1,27,44.1c-4.2-0.4-7.5-3.9-8-8.7
			c-0.4-3.9,0-7.5,0-7.5c0.5-4.7,3.8-8.3,8-8.7c0,0,2.2-0.4,4.7-0.4s4.7,0.4,4.7,0.4c4.2,0.4,7.5,3.9,8,8.7
			C44.3,27.9,44.8,31.5,44.3,35.4z M47.6,27.9c-0.7-6.9-5-11.6-11.3-12.2c0,0-2.8-0.4-4.7-0.4S27,15.7,27,15.7
			c-6.3,0.7-10.6,5.3-11.3,12.2c0,0-0.3,3.4,0,7.5c0.7,6.9,5,11.6,11.3,12.2c0,0,2.8,0.4,4.7,0.4s4.7-0.4,4.7-0.4
			c6.3-0.7,10.6-5.3,11.3-12.2C48,31.3,47.6,27.9,47.6,27.9z"/>
		<g>
			<polygon class="st1" points="24.2,29.8 22.4,25.7 28.3,27.1 31.6,24.1 34.9,27.1 40.8,25.7 39,29.8 			"/>
			<path class="st1" d="M35.5,34.3h-4.2l-4.2,3.6h4.1L35.5,34.3L35.5,34.3z"/>
			<path class="st1" d="M39,31.4H24.2V35h10.6L39,31.4L39,31.4z"/>
			<path class="st1" d="M38.9,35.8h-9.1l-4.2,3.6H39L38.9,35.8L38.9,35.8z"/>
		</g>
	</g>
</g>
</svg>
